<svg xmlns="http://www.w3.org/2000/svg" viewBox="0 0 512 512"><rect width="512" height="512" rx="48" fill="#fff8f0"/><circle cx="190" cy="274" r="112" fill="#b92b42"/><circle cx="322" cy="274" r="112" fill="#603c70"/><path d="M125 220c34-73 94-76 130-20-45-17-83-5-130 20Z" fill="#e85f73"/><path d="M256 166c34-72 91-76 133-21-45-17-84-5-133 21Z" fill="#8d5aa0"/><circle cx="165" cy="250" r="9" fill="#fff8f0"/><circle cx="218" cy="310" r="9" fill="#fff8f0"/><circle cx="296" cy="245" r="9" fill="#fff8f0"/><circle cx="353" cy="305" r="9" fill="#fff8f0"/><path d="M190 155c-8-28-34-42-56-29 8 22 26 34 56 29Zm132 0c8-28 34-42 56-29-8 22-26 34-56 29Z" fill="#5c8d42"/></svg>